<svg width="64" height="64" viewBox="0 0 64 64" xmlns="http://www.w3.org/2000/svg">
    <!--
       [2D 显函数图标 - 增强版]
       1. 底部：标准 y = sin(x) 曲线 (纯黑, 1.5px)
       2. 右上角：符号化的 f(x) 数学标记
    -->

    <!-- 1. 贯穿底部的正弦曲线 -->
    <path d="M 0 32 C 10 10, 22 10, 32 32 S 54 54, 64 32"
          stroke="#000000" stroke-width="1.5" fill="none" stroke-linecap="round" />

    <!-- 2. 位于右上角的 f(x) 路径 -->
    <!-- 修复了原路径的 NaN 错误，通过 translate 和 scale 将其精确定位 -->
    <path fill="#000000"
          d="M-1.75 49.35L-1.75 49.35Q-4.15 49.35-5.18 48.20Q-6.20 47.05-6.20 45.75L-6.20 45.75Q-6.20 44.70-5.68 44Q-5.15 43.30-4.20 43.30L-4.20 43.30Q-3.05 43.30-2.65 43.98Q-2.25 44.65-2.15 45.53Q-2.05 46.40-1.85 47.08Q-1.65 47.75-0.95 47.75L-0.95 47.75Q-0.15 47.75 0.48 46.90Q1.10 46.05 1.60 44.68Q2.10 43.30 2.48 41.73Q2.85 40.15 3.13 38.70Q3.40 37.25 3.55 36.25L3.55 36.25L7 15.55Q7.40 13.10 7.95 10.98Q8.50 8.85 9.45 7.20L9.45 7.20Q10.10 6 11.08 4.95Q12.05 3.90 13.50 3.23Q14.95 2.55 17.10 2.55L17.10 2.55Q18.65 2.55 19.70 3.02Q20.75 3.50 21.30 4.30Q21.85 5.10 21.85 6.20L21.85 6.20Q21.85 7.30 21.25 7.85Q20.65 8.40 19.85 8.40L19.85 8.40Q18.85 8.40 18.40 7.82Q17.95 7.25 17.85 6.45L17.85 6.45Q17.70 5.50 17.48 4.75Q17.25 4 16.35 4L16.35 4Q14.45 4 13.35 6Q12.25 8 11.70 11.20L11.70 11.20L8 33.85Q7.80 35.15 7.38 37.10Q6.95 39.05 6.23 41.18Q5.50 43.30 4.42 45.15Q3.35 47 1.83 48.18Q0.30 49.35-1.75 49.35ZM15.85 14.75L15.55 16.80L2.60 16.80L2.80 14.75L15.85 14.75ZM31.20 45.85L31.20 45.85L30.20 47.40Q24 44.30 20.35 38.48Q16.70 32.65 16.70 24.40L16.70 24.40Q16.70 16.20 20.35 10.43Q24 4.65 30.20 1.60L30.20 1.60L31.15 3.05Q26 6.70 23.77 11.82Q21.55 16.95 21.55 24.40L21.55 24.40Q21.55 31.95 23.80 37.10Q26.05 42.25 31.20 45.85ZM48.80 38.60L48.80 38.60Q46.95 38.60 46.08 37.25Q45.20 35.90 44.60 33.45L44.60 33.45L43.25 27.90L42.70 27.05L41.15 22Q40.50 19.90 39.88 18.70Q39.25 17.50 38.33 17Q37.40 16.50 35.90 16.50L35.90 16.50Q35.50 16.50 35.13 16.52Q34.75 16.55 34.25 16.65L34.25 16.65L34.25 15.15L41.05 14.35L41.80 14.35Q42.70 15.40 43.43 17Q44.15 18.60 44.65 20.65L44.65 20.65L45.35 23.70L45.85 24.65L47.05 28.55Q48.10 31.90 48.95 33.45Q49.80 35 51.05 35L51.05 35Q52.05 35 52.88 34.20Q53.70 33.40 54.60 32.20L54.60 32.20L55.65 33Q55.15 33.80 54.45 34.77Q53.75 35.75 52.90 36.63Q52.05 37.50 51.03 38.05Q50.00 38.60 48.80 38.60ZM33.70 38.55L33.70 38.55Q32.10 38.55 31.45 37.77Q30.80 37 30.80 36.15L30.80 36.15Q30.80 35.30 31.33 34.65Q31.85 34 32.80 34L32.80 34Q33.55 34 34.43 34.33Q35.30 34.65 35.90 34.65L35.90 34.65Q36.00 34.65 36.35 34.52Q36.70 34.40 37.35 33.80Q38.00 33.20 38.95 31.80L38.95 31.80L42.85 26.15L43.85 28.40L43.15 28.40L39.95 33.60Q38.75 35.55 37.35 37.05Q35.95 38.55 33.70 38.55ZM49.05 20.30L49.05 20.30L45.70 25.60L44.75 23.20L45.40 23.20L47.85 19Q48.50 17.85 49.38 16.75Q50.25 15.65 51.45 14.90Q52.65 14.15 54.20 14.15L54.20 14.15Q55.50 14.15 56.08 14.73Q56.65 15.30 56.65 16.30L56.65 16.30Q56.65 17.55 55.95 18.13Q55.25 18.70 54.40 18.70L54.40 18.70Q53.70 18.70 53.03 18.45Q52.35 18.20 51.70 18.20L51.70 18.20Q50.90 18.20 50.30 18.73Q49.70 19.25 49.05 20.30ZM57.75 47.40L57.75 47.40L56.75 45.85Q61.95 42.25 64.18 37.10Q66.40 31.95 66.40 24.40L66.40 24.40Q66.40 16.95 64.20 11.82Q62.00 6.70 56.80 3.05L56.80 3.05L57.75 1.60Q63.95 4.65 67.60 10.43Q71.25 16.20 71.25 24.40L71.25 24.40Q71.25 32.65 67.60 38.48Q63.95 44.30 57.75 47.40Z"
          transform="translate(29, -1) scale(0.5)" />
</svg>