<svg width="64" height="64" viewBox="0 0 64 64" xmlns="http://www.w3.org/2000/svg">
    <!--
       [隐函数图标 - 最大化星形线版]
       1. 几何：x^(2/3) + y^(2/3) = 1 (最大化星形线，半径 R=30)
       2. 布局：曲线顶点接近边界 (2, 32, 62)，符号置于右上角凹陷处
       3. 规格：纯黑 (#000000)，线宽 1.5
    -->

    <!-- 1. 最大化星形线主体 (Astroid) -->
    <!-- 顶点坐标：上(32, 2), 下(32, 62), 左(2, 32), 右(62, 32) -->
    <!-- 使用数学精确的贝塞尔控制点 (0.448 * R) 进行模拟 -->
    <path d="M 32 2
             C 32 18.5, 45.5 32, 62 32
             C 45.5 32, 32 45.5, 32 62
             C 32 45.5, 18.5 32, 2 32
             C 18.5 32, 32 18.5, 32 2 Z"
          stroke="#000000" stroke-width="1.5" fill="none" stroke-linecap="round" stroke-linejoin="round" />

    <!-- 2. 用户提供的数学符号路径 f(x,y) -->
    <!-- 放置在右上角的凹陷空间内 -->
    <path fill="#000000"
          d="M8.95 38.70L8.95 38.70Q6.20 38.70 4.60 37.43Q3 36.15 2.30 34.15Q1.60 32.15 1.60 29.95L1.60 29.95Q1.60 27.25 2.50 24.48Q3.40 21.70 5.10 19.35Q6.80 17 9.22 15.57Q11.65 14.15 14.70 14.15L14.70 14.15Q15.80 14.15 17.03 14.45Q18.25 14.75 19.15 15.73Q20.05 16.70 20.05 18.65L20.05 18.65Q20.05 21.05 18.63 22.77Q17.20 24.50 14.95 25.60Q12.70 26.70 10.18 27.27Q7.65 27.85 5.45 28L5.45 28L5.45 26.55Q8.35 26.45 10.68 25.45Q13 24.45 14.38 22.68Q15.75 20.90 15.75 18.45L15.75 18.45Q15.75 17.10 15.28 16.40Q14.80 15.70 13.65 15.70L13.65 15.70Q12 15.70 10.58 17.02Q9.15 18.35 8.08 20.38Q7 22.40 6.40 24.63Q5.80 26.85 5.80 28.65L5.80 28.65Q5.80 32.45 7.13 33.85Q8.45 35.25 10.95 35.25L10.95 35.25Q12.85 35.25 14.55 34.52Q16.25 33.80 17.70 32L17.70 32L18.60 32.75Q16.35 36.10 13.85 37.40Q11.35 38.70 8.95 38.70ZM42.20 47.70L41.95 49.10L33.25 49.10L36.70 33.85L36.35 33.85Q34.60 36.05 33.05 37.08Q31.50 38.10 30.33 38.40Q29.15 38.70 28.40 38.70L28.40 38.70Q25.30 38.70 23.85 36.30Q22.40 33.90 22.40 30.15L22.40 30.15Q22.40 26.75 23.43 23.83Q24.45 20.90 26.23 18.73Q28 16.55 30.25 15.35Q32.50 14.15 34.95 14.15L34.95 14.15Q36.95 14.15 38.23 14.85Q39.50 15.55 40.15 16.40L40.15 16.40L40.35 16.40L42.25 14.50L44.60 14.50L38.75 43.55Q38.75 43.55 38.67 44Q38.60 44.45 38.60 45.10L38.60 45.10Q38.60 46.40 39.30 47.05Q40 47.70 42.20 47.70L42.20 47.70ZM30.35 35.40L30.35 35.40Q31.85 35.40 33.28 34.63Q34.70 33.85 35.83 32.50Q36.95 31.15 37.40 29.50L37.40 29.50Q37.75 28.20 38.08 26.50Q38.40 24.80 38.63 23.23Q38.85 21.65 38.85 20.75L38.85 20.75Q38.85 18.70 37.67 17.38Q36.50 16.05 34.60 16.05L34.60 16.05Q32.30 16.05 30.55 17.95Q28.80 19.85 27.80 22.98Q26.80 26.10 26.80 29.70L26.80 29.70Q26.80 32.20 27.50 33.80Q28.20 35.40 30.35 35.40Z"
          transform="translate(39, -1) scale(0.5)" />
</svg>