<svg width="64" height="64" viewBox="0 0 64 64" xmlns="http://www.w3.org/2000/svg">

    <g transform="translate(32, 32) scale(1) translate(-32, -32)">
    <path fill="none" stroke="#000000" stroke-width="1.5" stroke-linecap="round" stroke-linejoin="round"
          d="M32.00,32.00 L32.16,32.02 L32.31,32.06 L32.45,32.13 L32.59,32.24 L32.70,32.36 L32.80,32.52 L32.87,32.69 L32.91,32.88 L32.93,33.08 L32.91,33.29 L32.86,33.51 L32.78,33.73 L32.66,33.95 L32.50,34.16 L32.32,34.35 L32.10,34.53 L31.84,34.68 L31.56,34.81 L31.26,34.91 L30.93,34.98 L30.58,35.00 L30.22,34.99 L29.85,34.93 L29.47,34.83 L29.10,34.68 L28.73,34.49 L28.37,34.25 L28.03,33.96 L27.71,33.63 L27.43,33.25 L27.17,32.84 L26.96,32.38 L26.78,31.89 L26.66,31.38 L26.59,30.84 L26.58,30.28 L26.62,29.70 L26.73,29.12 L26.89,28.54 L27.13,27.97 L27.42,27.41 L27.78,26.87 L28.21,26.36 L28.69,25.88 L29.23,25.45 L29.82,25.06 L30.46,24.73 L31.14,24.46 L31.87,24.25 L32.62,24.12 L33.40,24.06 L34.19,24.08 L35.00,24.18 L35.80,24.36 L36.60,24.62 L37.38,24.97 L38.14,25.40 L38.86,25.91 L39.54,26.51 L40.17,27.17 L40.73,27.91 L41.23,28.71 L41.66,29.57 L42.00,30.48 L42.26,31.44 L42.43,32.43 L42.49,33.44 L42.46,34.48 L42.33,35.52 L42.09,36.55 L41.74,37.58 L41.29,38.57 L40.74,39.54 L40.09,40.45 L39.34,41.31 L38.50,42.10 L37.58,42.82 L36.58,43.45 L35.50,43.99 L34.37,44.42 L33.19,44.75 L31.96,44.96 L30.70,45.06 L29.43,45.03 L28.15,44.88 L26.88,44.59 L25.62,44.19 L24.40,43.65 L23.22,43.00 L22.10,42.22 L21.05,41.33 L20.07,40.33 L19.19,39.22 L18.42,38.03 L17.75,36.75 L17.21,35.40 L16.79,33.99 L16.52,32.54 L16.38,31.04 L16.38,29.53 L16.54,28.00 L16.84,26.49 L17.30,25.00 L17.90,23.54 L18.65,22.14 L19.53,20.80 L20.56,19.54 L21.71,18.38 L22.97,17.32 L24.35,16.38 L25.82,15.57 L27.38,14.91 L29.01,14.39 L30.70,14.02 L32.43,13.82 L34.18,13.79 L35.95,13.93 L37.71,14.24 L39.44,14.72 L41.14,15.37 L42.78,16.19 L44.34,17.18 L45.82,18.31 L47.18,19.60 L48.43,21.02 L49.55,22.57 L50.51,24.23 L51.32,25.99 L51.96,27.83 L52.43,29.74 L52.71,31.71 L52.80,33.70 L52.70,35.71 L52.40,37.72 L51.91,39.70 L51.22,41.64 L50.34,43.52 L49.28,45.32 L48.04,47.02 L46.64,48.60 L45.07,50.06 L43.37,51.36 L41.53,52.50 L39.58,53.47 L37.53,54.25 L35.40,54.83 L33.20,55.21 L30.97,55.38 L28.72,55.33 L26.46,55.06 L24.23,54.57 L22.04,53.87 L19.92,52.95 L17.88,51.83 L15.94,50.51 L14.13,49.00 L12.46,47.31 L10.95,45.45 L9.62,43.45 L8.48,41.31 L7.55,39.06 L6.83,36.72 L6.33,34.30 L6.07,31.84 L6.05,29.34 L6.27,26.84 L6.73,24.36 L7.43,21.91 L8.37,19.53 L9.54,17.24 L10.93,15.06 L12.53,13.01 L14.33,11.12 L16.32,9.39 L18.48,7.86 L20.79,6.53 L23.23,5.43 L25.77,4.56 L28.41,3.93 L31.11,3.56 L33.84,3.44 L36.59,3.59 L39.33,4.01 L42.03,4.69 L44.66,5.63 L47.21,6.83 L49.64,8.27 L51.93,9.95 L54.07,11.86 L56.02,13.96 L57.77,16.26 L59.30,18.73 L60.59,21.35 L61.63,24.09 L62.41,26.94 L62.91,29.86 L63.13,32.83 L63.07,35.83 L62.72,38.81 L62.07,41.77" />
    </g>
</svg>